<mxfile host="app.diagrams.net" agent="Mozilla/5.0 (X11; Linux x86_64) AppleWebKit/537.36 (KHTML, like Gecko) Chrome/127.0.0.0 Safari/537.36" version="26.1.3">
  <diagram name="Page-1" id="ve74gUoPnkMRTklbbYo0">
    <mxGraphModel dx="2408" dy="913" grid="1" gridSize="10" guides="1" tooltips="1" connect="1" arrows="1" fold="1" page="1" pageScale="1" pageWidth="850" pageHeight="1100" math="0" shadow="0">
      <root>
        <mxCell id="0" />
        <mxCell id="1" parent="0" />
        <mxCell id="lRVDbdjrYC3U3WY9sBPi-1" value="Open Splitwise Apii" style="rounded=0;whiteSpace=wrap;html=1;fillColor=#d5e8d4;strokeColor=#82b366;" parent="1" vertex="1">
          <mxGeometry x="365" y="100" width="120" height="60" as="geometry" />
        </mxCell>
        <mxCell id="lRVDbdjrYC3U3WY9sBPi-2" value="Login/Signup Flow" style="rounded=0;whiteSpace=wrap;html=1;fillColor=#d5e8d4;strokeColor=#82b366;" parent="1" vertex="1">
          <mxGeometry x="360" y="210" width="120" height="60" as="geometry" />
        </mxCell>
        <mxCell id="lRVDbdjrYC3U3WY9sBPi-3" value="Home/Default Screen" style="rounded=0;whiteSpace=wrap;html=1;fillColor=#d5e8d4;strokeColor=#82b366;" parent="1" vertex="1">
          <mxGeometry x="365" y="310" width="120" height="60" as="geometry" />
        </mxCell>
        <mxCell id="lRVDbdjrYC3U3WY9sBPi-4" value="Friends" style="rounded=0;whiteSpace=wrap;html=1;fillColor=#d5e8d4;strokeColor=#82b366;" parent="1" vertex="1">
          <mxGeometry x="-160" y="480" width="120" height="60" as="geometry" />
        </mxCell>
        <mxCell id="lRVDbdjrYC3U3WY9sBPi-5" value="Activity" style="rounded=0;whiteSpace=wrap;html=1;fillColor=#d5e8d4;strokeColor=#82b366;" parent="1" vertex="1">
          <mxGeometry x="480" y="480" width="120" height="60" as="geometry" />
        </mxCell>
        <mxCell id="lRVDbdjrYC3U3WY9sBPi-6" value="Group" style="rounded=0;whiteSpace=wrap;html=1;fillColor=#d5e8d4;strokeColor=#82b366;" parent="1" vertex="1">
          <mxGeometry x="160" y="480" width="120" height="60" as="geometry" />
        </mxCell>
        <mxCell id="lRVDbdjrYC3U3WY9sBPi-7" value="View Friends" style="rounded=0;whiteSpace=wrap;html=1;fillColor=#d5e8d4;strokeColor=#82b366;" parent="1" vertex="1">
          <mxGeometry x="-448" y="600" width="120" height="60" as="geometry" />
        </mxCell>
        <mxCell id="lRVDbdjrYC3U3WY9sBPi-8" value="Show Shared Expences" style="rounded=0;whiteSpace=wrap;html=1;fillColor=#d5e8d4;strokeColor=#82b366;" parent="1" vertex="1">
          <mxGeometry x="-568" y="710" width="120" height="60" as="geometry" />
        </mxCell>
        <mxCell id="lRVDbdjrYC3U3WY9sBPi-10" value="Settle Up" style="rounded=0;whiteSpace=wrap;html=1;fillColor=#d5e8d4;strokeColor=#82b366;" parent="1" vertex="1">
          <mxGeometry x="-378" y="710" width="120" height="60" as="geometry" />
        </mxCell>
        <mxCell id="lRVDbdjrYC3U3WY9sBPi-11" value="Add Entry For Cash" style="rounded=0;whiteSpace=wrap;html=1;fillColor=#d5e8d4;strokeColor=#82b366;" parent="1" vertex="1">
          <mxGeometry x="-448" y="820" width="120" height="60" as="geometry" />
        </mxCell>
        <mxCell id="lRVDbdjrYC3U3WY9sBPi-12" value="UPI/Online Payment Integration (Need to research and implement For now Optional)" style="rounded=0;whiteSpace=wrap;html=1;fillColor=#d5e8d4;strokeColor=#82b366;" parent="1" vertex="1">
          <mxGeometry x="-288" y="820" width="130" height="80" as="geometry" />
        </mxCell>
        <mxCell id="lRVDbdjrYC3U3WY9sBPi-13" value="" style="endArrow=classic;html=1;rounded=0;exitX=0.5;exitY=1;exitDx=0;exitDy=0;entryX=0.447;entryY=0.06;entryDx=0;entryDy=0;entryPerimeter=0;" parent="1" source="lRVDbdjrYC3U3WY9sBPi-4" target="lRVDbdjrYC3U3WY9sBPi-7" edge="1">
          <mxGeometry width="50" height="50" relative="1" as="geometry">
            <mxPoint x="-110" y="650" as="sourcePoint" />
            <mxPoint x="-60" y="600" as="targetPoint" />
          </mxGeometry>
        </mxCell>
        <mxCell id="lRVDbdjrYC3U3WY9sBPi-14" value="" style="endArrow=classic;html=1;rounded=0;exitX=0.5;exitY=1;exitDx=0;exitDy=0;entryX=0.5;entryY=0;entryDx=0;entryDy=0;" parent="1" source="lRVDbdjrYC3U3WY9sBPi-7" target="lRVDbdjrYC3U3WY9sBPi-8" edge="1">
          <mxGeometry width="50" height="50" relative="1" as="geometry">
            <mxPoint x="-258" y="550" as="sourcePoint" />
            <mxPoint x="-384" y="614" as="targetPoint" />
          </mxGeometry>
        </mxCell>
        <mxCell id="lRVDbdjrYC3U3WY9sBPi-15" value="" style="endArrow=classic;html=1;rounded=0;entryX=0.5;entryY=0;entryDx=0;entryDy=0;exitX=0.5;exitY=1;exitDx=0;exitDy=0;" parent="1" source="lRVDbdjrYC3U3WY9sBPi-7" target="lRVDbdjrYC3U3WY9sBPi-10" edge="1">
          <mxGeometry width="50" height="50" relative="1" as="geometry">
            <mxPoint x="-378" y="690" as="sourcePoint" />
            <mxPoint x="-498" y="720" as="targetPoint" />
          </mxGeometry>
        </mxCell>
        <mxCell id="lRVDbdjrYC3U3WY9sBPi-16" value="" style="endArrow=classic;html=1;rounded=0;entryX=0.5;entryY=0;entryDx=0;entryDy=0;exitX=0.5;exitY=1;exitDx=0;exitDy=0;" parent="1" source="lRVDbdjrYC3U3WY9sBPi-10" target="lRVDbdjrYC3U3WY9sBPi-11" edge="1">
          <mxGeometry width="50" height="50" relative="1" as="geometry">
            <mxPoint x="-378" y="670" as="sourcePoint" />
            <mxPoint x="-308" y="720" as="targetPoint" />
          </mxGeometry>
        </mxCell>
        <mxCell id="lRVDbdjrYC3U3WY9sBPi-17" value="" style="endArrow=classic;html=1;rounded=0;entryX=0.5;entryY=0;entryDx=0;entryDy=0;" parent="1" target="lRVDbdjrYC3U3WY9sBPi-12" edge="1">
          <mxGeometry width="50" height="50" relative="1" as="geometry">
            <mxPoint x="-318" y="770" as="sourcePoint" />
            <mxPoint x="-378" y="830" as="targetPoint" />
          </mxGeometry>
        </mxCell>
        <mxCell id="lRVDbdjrYC3U3WY9sBPi-18" value="" style="endArrow=classic;html=1;rounded=0;entryX=0.5;entryY=0;entryDx=0;entryDy=0;" parent="1" target="lRVDbdjrYC3U3WY9sBPi-19" edge="1">
          <mxGeometry width="50" height="50" relative="1" as="geometry">
            <mxPoint x="-318" y="770" as="sourcePoint" />
            <mxPoint x="-318" y="920" as="targetPoint" />
          </mxGeometry>
        </mxCell>
        <mxCell id="lRVDbdjrYC3U3WY9sBPi-19" value="Reminder" style="rounded=0;whiteSpace=wrap;html=1;fillColor=#d5e8d4;strokeColor=#82b366;" parent="1" vertex="1">
          <mxGeometry x="-368" y="920" width="120" height="60" as="geometry" />
        </mxCell>
        <mxCell id="lRVDbdjrYC3U3WY9sBPi-20" value="Export" style="rounded=0;whiteSpace=wrap;html=1;fillColor=#d5e8d4;strokeColor=#82b366;" parent="1" vertex="1">
          <mxGeometry x="-698" y="800" width="120" height="60" as="geometry" />
        </mxCell>
        <mxCell id="lRVDbdjrYC3U3WY9sBPi-21" value="" style="endArrow=classic;html=1;rounded=0;exitX=0.5;exitY=1;exitDx=0;exitDy=0;entryX=0.43;entryY=-0.033;entryDx=0;entryDy=0;entryPerimeter=0;" parent="1" source="lRVDbdjrYC3U3WY9sBPi-8" target="lRVDbdjrYC3U3WY9sBPi-20" edge="1">
          <mxGeometry width="50" height="50" relative="1" as="geometry">
            <mxPoint x="-278" y="760" as="sourcePoint" />
            <mxPoint x="-228" y="710" as="targetPoint" />
          </mxGeometry>
        </mxCell>
        <mxCell id="lRVDbdjrYC3U3WY9sBPi-22" value="Add Friends" style="rounded=0;whiteSpace=wrap;html=1;fillColor=#d5e8d4;strokeColor=#82b366;" parent="1" vertex="1">
          <mxGeometry x="-170" y="610" width="120" height="60" as="geometry" />
        </mxCell>
        <mxCell id="lRVDbdjrYC3U3WY9sBPi-24" value="" style="endArrow=classic;html=1;rounded=0;entryX=0.5;entryY=0;entryDx=0;entryDy=0;" parent="1" target="lRVDbdjrYC3U3WY9sBPi-22" edge="1">
          <mxGeometry width="50" height="50" relative="1" as="geometry">
            <mxPoint x="-110" y="540" as="sourcePoint" />
            <mxPoint x="-384" y="614" as="targetPoint" />
          </mxGeometry>
        </mxCell>
        <mxCell id="lRVDbdjrYC3U3WY9sBPi-25" value="View Groups" style="rounded=0;whiteSpace=wrap;html=1;fillColor=#d5e8d4;strokeColor=#82b366;" parent="1" vertex="1">
          <mxGeometry x="80" y="600" width="120" height="60" as="geometry" />
        </mxCell>
        <mxCell id="lRVDbdjrYC3U3WY9sBPi-26" value="" style="endArrow=classic;html=1;rounded=0;exitX=0.433;exitY=0.98;exitDx=0;exitDy=0;entryX=0.5;entryY=0;entryDx=0;entryDy=0;exitPerimeter=0;" parent="1" source="lRVDbdjrYC3U3WY9sBPi-6" target="lRVDbdjrYC3U3WY9sBPi-25" edge="1">
          <mxGeometry width="50" height="50" relative="1" as="geometry">
            <mxPoint x="-90" y="550" as="sourcePoint" />
            <mxPoint x="-384" y="614" as="targetPoint" />
          </mxGeometry>
        </mxCell>
        <mxCell id="lRVDbdjrYC3U3WY9sBPi-27" value="Select Group" style="rounded=0;whiteSpace=wrap;html=1;fillColor=#d5e8d4;strokeColor=#82b366;" parent="1" vertex="1">
          <mxGeometry x="-40" y="720" width="120" height="60" as="geometry" />
        </mxCell>
        <mxCell id="lRVDbdjrYC3U3WY9sBPi-28" value="Show Expences" style="rounded=0;whiteSpace=wrap;html=1;fillColor=#d5e8d4;strokeColor=#82b366;" parent="1" vertex="1">
          <mxGeometry x="-120" y="830" width="120" height="60" as="geometry" />
        </mxCell>
        <mxCell id="lRVDbdjrYC3U3WY9sBPi-29" value="" style="endArrow=classic;html=1;rounded=0;exitX=0.5;exitY=1;exitDx=0;exitDy=0;entryX=0.5;entryY=0;entryDx=0;entryDy=0;" parent="1" source="lRVDbdjrYC3U3WY9sBPi-27" target="lRVDbdjrYC3U3WY9sBPi-28" edge="1">
          <mxGeometry width="50" height="50" relative="1" as="geometry">
            <mxPoint x="-40" y="990" as="sourcePoint" />
            <mxPoint x="10" y="940" as="targetPoint" />
          </mxGeometry>
        </mxCell>
        <mxCell id="lRVDbdjrYC3U3WY9sBPi-30" value="Balances (Chart Option for better understanding)" style="rounded=0;whiteSpace=wrap;html=1;fillColor=#d5e8d4;strokeColor=#82b366;" parent="1" vertex="1">
          <mxGeometry x="50" y="830" width="120" height="60" as="geometry" />
        </mxCell>
        <mxCell id="lRVDbdjrYC3U3WY9sBPi-31" value="" style="endArrow=classic;html=1;rounded=0;exitX=0.5;exitY=1;exitDx=0;exitDy=0;entryX=0.5;entryY=0;entryDx=0;entryDy=0;" parent="1" source="lRVDbdjrYC3U3WY9sBPi-27" target="lRVDbdjrYC3U3WY9sBPi-30" edge="1">
          <mxGeometry width="50" height="50" relative="1" as="geometry">
            <mxPoint x="30" y="790" as="sourcePoint" />
            <mxPoint x="-50" y="840" as="targetPoint" />
          </mxGeometry>
        </mxCell>
        <mxCell id="lRVDbdjrYC3U3WY9sBPi-32" value="" style="endArrow=classic;html=1;rounded=0;exitX=0.447;exitY=1.033;exitDx=0;exitDy=0;entryX=0.5;entryY=0;entryDx=0;entryDy=0;exitPerimeter=0;" parent="1" source="lRVDbdjrYC3U3WY9sBPi-25" target="lRVDbdjrYC3U3WY9sBPi-27" edge="1">
          <mxGeometry width="50" height="50" relative="1" as="geometry">
            <mxPoint x="30" y="790" as="sourcePoint" />
            <mxPoint x="-50" y="840" as="targetPoint" />
          </mxGeometry>
        </mxCell>
        <mxCell id="lRVDbdjrYC3U3WY9sBPi-34" value="Create New Group" style="rounded=0;whiteSpace=wrap;html=1;fillColor=#d5e8d4;strokeColor=#82b366;" parent="1" vertex="1">
          <mxGeometry x="220" y="720" width="120" height="60" as="geometry" />
        </mxCell>
        <mxCell id="lRVDbdjrYC3U3WY9sBPi-35" value="Add New Member" style="rounded=0;whiteSpace=wrap;html=1;fillColor=#d5e8d4;strokeColor=#82b366;" parent="1" vertex="1">
          <mxGeometry x="220" y="830" width="120" height="60" as="geometry" />
        </mxCell>
        <mxCell id="lRVDbdjrYC3U3WY9sBPi-36" value="" style="endArrow=classic;html=1;rounded=0;exitX=0.5;exitY=1;exitDx=0;exitDy=0;entryX=0.5;entryY=0;entryDx=0;entryDy=0;" parent="1" source="lRVDbdjrYC3U3WY9sBPi-34" target="lRVDbdjrYC3U3WY9sBPi-35" edge="1">
          <mxGeometry width="50" height="50" relative="1" as="geometry">
            <mxPoint x="144" y="672" as="sourcePoint" />
            <mxPoint x="30" y="730" as="targetPoint" />
          </mxGeometry>
        </mxCell>
        <mxCell id="lRVDbdjrYC3U3WY9sBPi-37" value="" style="endArrow=classic;html=1;rounded=0;exitX=0.44;exitY=1.02;exitDx=0;exitDy=0;entryX=0.5;entryY=0;entryDx=0;entryDy=0;exitPerimeter=0;" parent="1" source="lRVDbdjrYC3U3WY9sBPi-25" target="lRVDbdjrYC3U3WY9sBPi-34" edge="1">
          <mxGeometry width="50" height="50" relative="1" as="geometry">
            <mxPoint x="144" y="672" as="sourcePoint" />
            <mxPoint x="30" y="730" as="targetPoint" />
          </mxGeometry>
        </mxCell>
        <mxCell id="lRVDbdjrYC3U3WY9sBPi-38" value="Other Stats (Total Group Expence/ Each Member shares, etc..)" style="rounded=0;whiteSpace=wrap;html=1;fillColor=#d5e8d4;strokeColor=#82b366;" parent="1" vertex="1">
          <mxGeometry x="370" y="720" width="120" height="60" as="geometry" />
        </mxCell>
        <mxCell id="lRVDbdjrYC3U3WY9sBPi-39" value="" style="endArrow=classic;html=1;rounded=0;exitX=0.75;exitY=1;exitDx=0;exitDy=0;entryX=0.56;entryY=-0.02;entryDx=0;entryDy=0;entryPerimeter=0;" parent="1" source="lRVDbdjrYC3U3WY9sBPi-25" target="lRVDbdjrYC3U3WY9sBPi-38" edge="1">
          <mxGeometry width="50" height="50" relative="1" as="geometry">
            <mxPoint x="143" y="671" as="sourcePoint" />
            <mxPoint x="290" y="730" as="targetPoint" />
          </mxGeometry>
        </mxCell>
        <mxCell id="lRVDbdjrYC3U3WY9sBPi-40" value="Show Fuds In and Out Activity" style="rounded=0;whiteSpace=wrap;html=1;fillColor=#d5e8d4;strokeColor=#82b366;" parent="1" vertex="1">
          <mxGeometry x="480" y="570" width="120" height="60" as="geometry" />
        </mxCell>
        <mxCell id="lRVDbdjrYC3U3WY9sBPi-41" value="" style="endArrow=classic;html=1;rounded=0;exitX=0.5;exitY=1;exitDx=0;exitDy=0;entryX=0.5;entryY=0;entryDx=0;entryDy=0;" parent="1" source="lRVDbdjrYC3U3WY9sBPi-5" target="lRVDbdjrYC3U3WY9sBPi-40" edge="1">
          <mxGeometry width="50" height="50" relative="1" as="geometry">
            <mxPoint x="222" y="549" as="sourcePoint" />
            <mxPoint x="150" y="610" as="targetPoint" />
          </mxGeometry>
        </mxCell>
        <mxCell id="lRVDbdjrYC3U3WY9sBPi-43" value="" style="endArrow=classic;html=1;rounded=0;exitX=0.5;exitY=1;exitDx=0;exitDy=0;entryX=0.5;entryY=0;entryDx=0;entryDy=0;" parent="1" source="lRVDbdjrYC3U3WY9sBPi-3" edge="1">
          <mxGeometry width="50" height="50" relative="1" as="geometry">
            <mxPoint x="550" y="531" as="sourcePoint" />
            <mxPoint x="540" y="461" as="targetPoint" />
          </mxGeometry>
        </mxCell>
        <mxCell id="lRVDbdjrYC3U3WY9sBPi-44" value="User Profile" style="rounded=0;whiteSpace=wrap;html=1;fillColor=#d5e8d4;strokeColor=#82b366;" parent="1" vertex="1">
          <mxGeometry x="680" y="480" width="120" height="60" as="geometry" />
        </mxCell>
        <mxCell id="lRVDbdjrYC3U3WY9sBPi-45" value="Update Profile (Change name, email, password, image, etc.)" style="rounded=0;whiteSpace=wrap;html=1;fillColor=#d5e8d4;strokeColor=#82b366;" parent="1" vertex="1">
          <mxGeometry x="640" y="600" width="120" height="60" as="geometry" />
        </mxCell>
        <mxCell id="lRVDbdjrYC3U3WY9sBPi-46" value="" style="endArrow=classic;html=1;rounded=0;entryX=0.5;entryY=0;entryDx=0;entryDy=0;exitX=0.5;exitY=1;exitDx=0;exitDy=0;" parent="1" source="lRVDbdjrYC3U3WY9sBPi-44" target="lRVDbdjrYC3U3WY9sBPi-45" edge="1">
          <mxGeometry width="50" height="50" relative="1" as="geometry">
            <mxPoint x="-100" y="550" as="sourcePoint" />
            <mxPoint x="-100" y="620" as="targetPoint" />
          </mxGeometry>
        </mxCell>
        <mxCell id="lRVDbdjrYC3U3WY9sBPi-47" value="" style="endArrow=classic;html=1;rounded=0;exitX=0.5;exitY=1;exitDx=0;exitDy=0;entryX=0.5;entryY=0;entryDx=0;entryDy=0;" parent="1" source="lRVDbdjrYC3U3WY9sBPi-44" target="lRVDbdjrYC3U3WY9sBPi-48" edge="1">
          <mxGeometry width="50" height="50" relative="1" as="geometry">
            <mxPoint x="435" y="400" as="sourcePoint" />
            <mxPoint x="850" y="600" as="targetPoint" />
          </mxGeometry>
        </mxCell>
        <mxCell id="lRVDbdjrYC3U3WY9sBPi-48" value="Settings (Langauge, Currency, Theme (Light/Dark)" style="rounded=0;whiteSpace=wrap;html=1;fillColor=#d5e8d4;strokeColor=#82b366;" parent="1" vertex="1">
          <mxGeometry x="790" y="610" width="120" height="60" as="geometry" />
        </mxCell>
        <mxCell id="lRVDbdjrYC3U3WY9sBPi-51" value="" style="endArrow=classic;html=1;rounded=0;entryX=0.5;entryY=0;entryDx=0;entryDy=0;exitX=0.5;exitY=1;exitDx=0;exitDy=0;" parent="1" source="lRVDbdjrYC3U3WY9sBPi-3" target="lRVDbdjrYC3U3WY9sBPi-44" edge="1">
          <mxGeometry width="50" height="50" relative="1" as="geometry">
            <mxPoint x="430" y="390" as="sourcePoint" />
            <mxPoint x="550" y="490" as="targetPoint" />
          </mxGeometry>
        </mxCell>
        <mxCell id="lRVDbdjrYC3U3WY9sBPi-52" value="" style="endArrow=classic;html=1;rounded=0;exitX=0.5;exitY=1;exitDx=0;exitDy=0;entryX=0.5;entryY=0;entryDx=0;entryDy=0;" parent="1" source="lRVDbdjrYC3U3WY9sBPi-3" target="lRVDbdjrYC3U3WY9sBPi-6" edge="1">
          <mxGeometry width="50" height="50" relative="1" as="geometry">
            <mxPoint x="445" y="410" as="sourcePoint" />
            <mxPoint x="560" y="500" as="targetPoint" />
          </mxGeometry>
        </mxCell>
        <mxCell id="lRVDbdjrYC3U3WY9sBPi-53" value="" style="endArrow=classic;html=1;rounded=0;entryX=0.367;entryY=-0.06;entryDx=0;entryDy=0;entryPerimeter=0;exitX=0.5;exitY=1;exitDx=0;exitDy=0;" parent="1" source="lRVDbdjrYC3U3WY9sBPi-3" target="lRVDbdjrYC3U3WY9sBPi-4" edge="1">
          <mxGeometry width="50" height="50" relative="1" as="geometry">
            <mxPoint x="430" y="390" as="sourcePoint" />
            <mxPoint x="750" y="490" as="targetPoint" />
          </mxGeometry>
        </mxCell>
        <mxCell id="lRVDbdjrYC3U3WY9sBPi-54" value="" style="endArrow=classic;html=1;rounded=0;exitX=0.5;exitY=1;exitDx=0;exitDy=0;entryX=0.45;entryY=-0.039;entryDx=0;entryDy=0;entryPerimeter=0;" parent="1" source="lRVDbdjrYC3U3WY9sBPi-1" target="lRVDbdjrYC3U3WY9sBPi-2" edge="1">
          <mxGeometry width="50" height="50" relative="1" as="geometry">
            <mxPoint x="360" y="240" as="sourcePoint" />
            <mxPoint x="410" y="190" as="targetPoint" />
          </mxGeometry>
        </mxCell>
        <mxCell id="lRVDbdjrYC3U3WY9sBPi-55" value="" style="endArrow=classic;html=1;rounded=0;exitX=0.5;exitY=1;exitDx=0;exitDy=0;entryX=0.406;entryY=-0.011;entryDx=0;entryDy=0;entryPerimeter=0;" parent="1" source="lRVDbdjrYC3U3WY9sBPi-2" target="lRVDbdjrYC3U3WY9sBPi-3" edge="1">
          <mxGeometry width="50" height="50" relative="1" as="geometry">
            <mxPoint x="435" y="150" as="sourcePoint" />
            <mxPoint x="429" y="218" as="targetPoint" />
          </mxGeometry>
        </mxCell>
        <mxCell id="lRVDbdjrYC3U3WY9sBPi-56" value="" style="endArrow=classic;html=1;rounded=0;exitX=1;exitY=0.5;exitDx=0;exitDy=0;entryX=0;entryY=0.5;entryDx=0;entryDy=0;" parent="1" source="lRVDbdjrYC3U3WY9sBPi-2" target="lRVDbdjrYC3U3WY9sBPi-57" edge="1">
          <mxGeometry width="50" height="50" relative="1" as="geometry">
            <mxPoint x="435" y="280" as="sourcePoint" />
            <mxPoint x="580" y="240" as="targetPoint" />
          </mxGeometry>
        </mxCell>
        <mxCell id="lRVDbdjrYC3U3WY9sBPi-57" value="Contact Number Login / Google OAuth login" style="rounded=0;whiteSpace=wrap;html=1;fillColor=#d5e8d4;strokeColor=#82b366;" parent="1" vertex="1">
          <mxGeometry x="600" y="210" width="120" height="60" as="geometry" />
        </mxCell>
        <mxCell id="ZsCgZB8a-lF7FFfyLKsi-7" value="Settle Up" style="rounded=0;whiteSpace=wrap;html=1;fillColor=#e1d5e7;strokeColor=#9673a6;" vertex="1" parent="1">
          <mxGeometry x="542" y="720" width="120" height="60" as="geometry" />
        </mxCell>
        <mxCell id="ZsCgZB8a-lF7FFfyLKsi-8" value="Add Entry For Cash" style="rounded=0;whiteSpace=wrap;html=1;fillColor=#e1d5e7;strokeColor=#9673a6;" vertex="1" parent="1">
          <mxGeometry x="472" y="830" width="120" height="60" as="geometry" />
        </mxCell>
        <mxCell id="ZsCgZB8a-lF7FFfyLKsi-9" value="UPI/Online Payment Integration (Need to research and implement For now Optional)" style="rounded=0;whiteSpace=wrap;html=1;fillColor=#e1d5e7;strokeColor=#9673a6;" vertex="1" parent="1">
          <mxGeometry x="632" y="830" width="130" height="80" as="geometry" />
        </mxCell>
        <mxCell id="ZsCgZB8a-lF7FFfyLKsi-10" value="" style="endArrow=classic;html=1;rounded=0;entryX=0.5;entryY=0;entryDx=0;entryDy=0;exitX=0.5;exitY=1;exitDx=0;exitDy=0;" edge="1" parent="1" source="ZsCgZB8a-lF7FFfyLKsi-7" target="ZsCgZB8a-lF7FFfyLKsi-8">
          <mxGeometry width="50" height="50" relative="1" as="geometry">
            <mxPoint x="542" y="680" as="sourcePoint" />
            <mxPoint x="612" y="730" as="targetPoint" />
          </mxGeometry>
        </mxCell>
        <mxCell id="ZsCgZB8a-lF7FFfyLKsi-11" value="" style="endArrow=classic;html=1;rounded=0;entryX=0.5;entryY=0;entryDx=0;entryDy=0;" edge="1" parent="1" target="ZsCgZB8a-lF7FFfyLKsi-9">
          <mxGeometry width="50" height="50" relative="1" as="geometry">
            <mxPoint x="602" y="780" as="sourcePoint" />
            <mxPoint x="542" y="840" as="targetPoint" />
          </mxGeometry>
        </mxCell>
        <mxCell id="ZsCgZB8a-lF7FFfyLKsi-12" value="" style="endArrow=classic;html=1;rounded=0;entryX=0.5;entryY=0;entryDx=0;entryDy=0;" edge="1" parent="1" target="ZsCgZB8a-lF7FFfyLKsi-13">
          <mxGeometry width="50" height="50" relative="1" as="geometry">
            <mxPoint x="602" y="780" as="sourcePoint" />
            <mxPoint x="602" y="930" as="targetPoint" />
          </mxGeometry>
        </mxCell>
        <mxCell id="ZsCgZB8a-lF7FFfyLKsi-13" value="Reminder" style="rounded=0;whiteSpace=wrap;html=1;fillColor=#e1d5e7;strokeColor=#9673a6;" vertex="1" parent="1">
          <mxGeometry x="552" y="930" width="120" height="60" as="geometry" />
        </mxCell>
        <mxCell id="ZsCgZB8a-lF7FFfyLKsi-14" value="" style="endArrow=classic;html=1;rounded=0;fontSize=12;startSize=8;endSize=8;curved=1;exitX=1;exitY=0.5;exitDx=0;exitDy=0;entryX=0.5;entryY=0;entryDx=0;entryDy=0;" edge="1" parent="1" source="lRVDbdjrYC3U3WY9sBPi-25" target="ZsCgZB8a-lF7FFfyLKsi-7">
          <mxGeometry width="50" height="50" relative="1" as="geometry">
            <mxPoint x="340" y="690" as="sourcePoint" />
            <mxPoint x="390" y="640" as="targetPoint" />
          </mxGeometry>
        </mxCell>
        <mxCell id="ZsCgZB8a-lF7FFfyLKsi-18" value="JWT if web access" style="shape=parallelogram;perimeter=parallelogramPerimeter;whiteSpace=wrap;html=1;fixedSize=1;fillColor=#f5f5f5;fontColor=#333333;strokeColor=#666666;" vertex="1" parent="1">
          <mxGeometry x="580" y="310" width="148" height="60" as="geometry" />
        </mxCell>
        <mxCell id="ZsCgZB8a-lF7FFfyLKsi-21" value="" style="edgeStyle=elbowEdgeStyle;elbow=horizontal;endArrow=classic;html=1;curved=0;rounded=1;endSize=8;startSize=8;fontSize=12;exitX=1;exitY=0.5;exitDx=0;exitDy=0;entryX=1;entryY=0.5;entryDx=0;entryDy=0;" edge="1" parent="1">
          <mxGeometry width="50" height="50" relative="1" as="geometry">
            <mxPoint x="722" y="230" as="sourcePoint" />
            <mxPoint x="720" y="340" as="targetPoint" />
            <Array as="points">
              <mxPoint x="790" y="290" />
            </Array>
          </mxGeometry>
        </mxCell>
        <mxCell id="ZsCgZB8a-lF7FFfyLKsi-22" value="" style="endArrow=classic;html=1;rounded=0;fontSize=12;startSize=8;endSize=8;curved=1;exitX=0;exitY=0.5;exitDx=0;exitDy=0;entryX=1;entryY=0.5;entryDx=0;entryDy=0;" edge="1" parent="1" source="ZsCgZB8a-lF7FFfyLKsi-18" target="lRVDbdjrYC3U3WY9sBPi-3">
          <mxGeometry width="50" height="50" relative="1" as="geometry">
            <mxPoint x="510" y="350" as="sourcePoint" />
            <mxPoint x="560" y="300" as="targetPoint" />
          </mxGeometry>
        </mxCell>
      </root>
    </mxGraphModel>
  </diagram>
</mxfile>
